solid OpenSCAD_Model
  facet normal -0 0 1
    outer loop
      vertex -20.65 13.25 5.75
      vertex 20.65 10.25 5.75
      vertex 20.65 13.25 5.75
    endloop
  endfacet
  facet normal 0 0 1
    outer loop
      vertex 20.65 10.25 5.75
      vertex -20.65 13.25 5.75
      vertex -20.65 10.25 5.75
    endloop
  endfacet
  facet normal -0 0 1
    outer loop
      vertex -20.65 -10.25 5.75
      vertex 20.65 -13.25 5.75
      vertex 20.65 -10.25 5.75
    endloop
  endfacet
  facet normal 0 0 1
    outer loop
      vertex 20.65 -13.25 5.75
      vertex -20.65 -10.25 5.75
      vertex -20.65 -13.25 5.75
    endloop
  endfacet
  facet normal 0 1 -0
    outer loop
      vertex 20.65 13.25 4.5
      vertex -20.65 13.25 5.75
      vertex 20.65 13.25 5.75
    endloop
  endfacet
  facet normal 0 1 0
    outer loop
      vertex -20.65 13.25 5.75
      vertex 20.65 13.25 4.5
      vertex -20.65 13.25 4.5
    endloop
  endfacet
  facet normal 0 -1 0
    outer loop
      vertex -20.65 -13.25 4.5
      vertex 20.65 -13.25 5.75
      vertex -20.65 -13.25 5.75
    endloop
  endfacet
  facet normal 0 -1 -0
    outer loop
      vertex 20.65 -13.25 5.75
      vertex -20.65 -13.25 4.5
      vertex 20.65 -13.25 4.5
    endloop
  endfacet
  facet normal 0 -1 0
    outer loop
      vertex -20.65 10.25 4.5
      vertex 20.65 10.25 5.75
      vertex -20.65 10.25 5.75
    endloop
  endfacet
  facet normal 0 -1 -0
    outer loop
      vertex 20.65 10.25 5.75
      vertex -20.65 10.25 4.5
      vertex 20.65 10.25 4.5
    endloop
  endfacet
  facet normal 0 1 -0
    outer loop
      vertex 20.65 -10.25 4.5
      vertex -20.65 -10.25 5.75
      vertex 20.65 -10.25 5.75
    endloop
  endfacet
  facet normal 0 1 0
    outer loop
      vertex -20.65 -10.25 5.75
      vertex 20.65 -10.25 4.5
      vertex -20.65 -10.25 4.5
    endloop
  endfacet
  facet normal 1 -0 0
    outer loop
      vertex 30.75 -27.25 4.5
      vertex 30.75 27.25 -4.5
      vertex 30.75 27.25 4.5
    endloop
  endfacet
  facet normal 1 0 0
    outer loop
      vertex 30.75 27.25 -4.5
      vertex 30.75 -27.25 4.5
      vertex 30.75 -27.25 -4.5
    endloop
  endfacet
  facet normal 0 0 1
    outer loop
      vertex 20.65 -13.25 4.5
      vertex -20.65 -13.25 4.5
      vertex 20.65 -15.25 4.5
    endloop
  endfacet
  facet normal 0 0 1
    outer loop
      vertex 30.75 27.25 4.5
      vertex 23.85 15.25 4.5
      vertex 30.75 -27.25 4.5
    endloop
  endfacet
  facet normal 0 0 1
    outer loop
      vertex 30.75 27.25 4.5
      vertex 20.65 15.25 4.5
      vertex 23.85 15.25 4.5
    endloop
  endfacet
  facet normal 0 0 1
    outer loop
      vertex 20.65 15.25 4.5
      vertex -20.65 15.25 4.5
      vertex 20.65 13.25 4.5
    endloop
  endfacet
  facet normal 0 0 1
    outer loop
      vertex 30.75 27.25 4.5
      vertex -20.65 15.25 4.5
      vertex 20.65 15.25 4.5
    endloop
  endfacet
  facet normal -0 0 1
    outer loop
      vertex -30.75 27.25 4.5
      vertex -20.65 15.25 4.5
      vertex 30.75 27.25 4.5
    endloop
  endfacet
  facet normal 0 0 1
    outer loop
      vertex -23.85 15.25 4.5
      vertex -30.75 27.25 4.5
      vertex -23.85 -15.25 4.5
    endloop
  endfacet
  facet normal 0 0 1
    outer loop
      vertex -20.65 15.25 4.5
      vertex -30.75 27.25 4.5
      vertex -23.85 15.25 4.5
    endloop
  endfacet
  facet normal -0 0 1
    outer loop
      vertex 23.85 -15.25 4.5
      vertex 30.75 -27.25 4.5
      vertex 23.85 15.25 4.5
    endloop
  endfacet
  facet normal -0 0 1
    outer loop
      vertex 20.65 -15.25 4.5
      vertex 30.75 -27.25 4.5
      vertex 23.85 -15.25 4.5
    endloop
  endfacet
  facet normal 0 0 1
    outer loop
      vertex -20.65 -15.25 4.5
      vertex 20.65 -15.25 4.5
      vertex -20.65 -13.25 4.5
    endloop
  endfacet
  facet normal 0 0 1
    outer loop
      vertex 20.65 -15.25 4.5
      vertex -20.65 -15.25 4.5
      vertex 30.75 -27.25 4.5
    endloop
  endfacet
  facet normal 0 0 1
    outer loop
      vertex -30.75 -27.25 4.5
      vertex -20.65 -15.25 4.5
      vertex -23.85 -15.25 4.5
    endloop
  endfacet
  facet normal 0 0 1
    outer loop
      vertex -20.65 -15.25 4.5
      vertex -30.75 -27.25 4.5
      vertex 30.75 -27.25 4.5
    endloop
  endfacet
  facet normal 0 0 1
    outer loop
      vertex -30.75 -27.25 4.5
      vertex -23.85 -15.25 4.5
      vertex -30.75 27.25 4.5
    endloop
  endfacet
  facet normal 0 0 1
    outer loop
      vertex 20.65 13.25 4.5
      vertex -20.65 15.25 4.5
      vertex -20.65 13.25 4.5
    endloop
  endfacet
  facet normal 0 0 1
    outer loop
      vertex 20.65 10.25 4.5
      vertex 20.35 0 4.5
      vertex 20.65 -10.25 4.5
    endloop
  endfacet
  facet normal 0 0 1
    outer loop
      vertex 20.65 10.25 4.5
      vertex 20.3218 0.430736 4.5
      vertex 20.35 0 4.5
    endloop
  endfacet
  facet normal 0 0 1
    outer loop
      vertex 20.65 10.25 4.5
      vertex 20.2376 0.854102 4.5
      vertex 20.3218 0.430736 4.5
    endloop
  endfacet
  facet normal 0 0 1
    outer loop
      vertex 20.65 10.25 4.5
      vertex 20.0988 1.26285 4.5
      vertex 20.2376 0.854102 4.5
    endloop
  endfacet
  facet normal 0 0 1
    outer loop
      vertex 20.65 10.25 4.5
      vertex 19.9079 1.65 4.5
      vertex 20.0988 1.26285 4.5
    endloop
  endfacet
  facet normal 0 0 1
    outer loop
      vertex 20.65 10.25 4.5
      vertex 19.6681 2.00891 4.5
      vertex 19.9079 1.65 4.5
    endloop
  endfacet
  facet normal 0 0 1
    outer loop
      vertex 20.65 10.25 4.5
      vertex 19.3835 2.33345 4.5
      vertex 19.6681 2.00891 4.5
    endloop
  endfacet
  facet normal 0 0 1
    outer loop
      vertex 20.65 10.25 4.5
      vertex 19.0589 2.61807 4.5
      vertex 19.3835 2.33345 4.5
    endloop
  endfacet
  facet normal 0 0 1
    outer loop
      vertex 20.65 10.25 4.5
      vertex 18.7 2.85788 4.5
      vertex 19.0589 2.61807 4.5
    endloop
  endfacet
  facet normal 0 0 1
    outer loop
      vertex 20.65 10.25 4.5
      vertex 18.3129 3.0488 4.5
      vertex 18.7 2.85788 4.5
    endloop
  endfacet
  facet normal 0 0 1
    outer loop
      vertex 20.65 10.25 4.5
      vertex 17.9041 3.18755 4.5
      vertex 18.3129 3.0488 4.5
    endloop
  endfacet
  facet normal 0 0 1
    outer loop
      vertex 20.65 10.25 4.5
      vertex 17.4807 3.27177 4.5
      vertex 17.9041 3.18755 4.5
    endloop
  endfacet
  facet normal 0 0 1
    outer loop
      vertex 20.65 10.25 4.5
      vertex 17.05 3.3 4.5
      vertex 17.4807 3.27177 4.5
    endloop
  endfacet
  facet normal 0 0 1
    outer loop
      vertex 20.65 10.25 4.5
      vertex 16.6193 3.27177 4.5
      vertex 17.05 3.3 4.5
    endloop
  endfacet
  facet normal 0 0 1
    outer loop
      vertex 20.65 10.25 4.5
      vertex 16.1959 3.18755 4.5
      vertex 16.6193 3.27177 4.5
    endloop
  endfacet
  facet normal 0 0 1
    outer loop
      vertex 20.65 10.25 4.5
      vertex 15.7871 3.0488 4.5
      vertex 16.1959 3.18755 4.5
    endloop
  endfacet
  facet normal 0 0 1
    outer loop
      vertex 20.65 10.25 4.5
      vertex 15.4 2.85788 4.5
      vertex 15.7871 3.0488 4.5
    endloop
  endfacet
  facet normal 0 0 1
    outer loop
      vertex 20.65 10.25 4.5
      vertex 15.0411 2.61807 4.5
      vertex 15.4 2.85788 4.5
    endloop
  endfacet
  facet normal 0 0 1
    outer loop
      vertex 20.65 10.25 4.5
      vertex 14.7165 2.33345 4.5
      vertex 15.0411 2.61807 4.5
    endloop
  endfacet
  facet normal -0 0 1
    outer loop
      vertex -20.65 10.25 4.5
      vertex 14.7165 2.33345 4.5
      vertex 20.65 10.25 4.5
    endloop
  endfacet
  facet normal 0 0 1
    outer loop
      vertex 13.7782 0.430736 4.5
      vertex -20.65 10.25 4.5
      vertex 13.75 0 4.5
    endloop
  endfacet
  facet normal 0 0 1
    outer loop
      vertex 13.8624 0.854102 4.5
      vertex -20.65 10.25 4.5
      vertex 13.7782 0.430736 4.5
    endloop
  endfacet
  facet normal 0 0 1
    outer loop
      vertex 14.0012 1.26285 4.5
      vertex -20.65 10.25 4.5
      vertex 13.8624 0.854102 4.5
    endloop
  endfacet
  facet normal 0 0 1
    outer loop
      vertex 14.1921 1.65 4.5
      vertex -20.65 10.25 4.5
      vertex 14.0012 1.26285 4.5
    endloop
  endfacet
  facet normal 0 0 1
    outer loop
      vertex 14.4319 2.00891 4.5
      vertex -20.65 10.25 4.5
      vertex 14.1921 1.65 4.5
    endloop
  endfacet
  facet normal 0 0 1
    outer loop
      vertex 14.7165 2.33345 4.5
      vertex -20.65 10.25 4.5
      vertex 14.4319 2.00891 4.5
    endloop
  endfacet
  facet normal -0 0 1
    outer loop
      vertex 20.3218 -0.430736 4.5
      vertex 20.65 -10.25 4.5
      vertex 20.35 0 4.5
    endloop
  endfacet
  facet normal -0 0 1
    outer loop
      vertex 20.2376 -0.854102 4.5
      vertex 20.65 -10.25 4.5
      vertex 20.3218 -0.430736 4.5
    endloop
  endfacet
  facet normal -0 0 1
    outer loop
      vertex 20.0988 -1.26285 4.5
      vertex 20.65 -10.25 4.5
      vertex 20.2376 -0.854102 4.5
    endloop
  endfacet
  facet normal -0 0 1
    outer loop
      vertex 19.9079 -1.65 4.5
      vertex 20.65 -10.25 4.5
      vertex 20.0988 -1.26285 4.5
    endloop
  endfacet
  facet normal -0 0 1
    outer loop
      vertex 19.6681 -2.00891 4.5
      vertex 20.65 -10.25 4.5
      vertex 19.9079 -1.65 4.5
    endloop
  endfacet
  facet normal -0 0 1
    outer loop
      vertex 19.3835 -2.33345 4.5
      vertex 20.65 -10.25 4.5
      vertex 19.6681 -2.00891 4.5
    endloop
  endfacet
  facet normal -0 0 1
    outer loop
      vertex 19.0589 -2.61807 4.5
      vertex 20.65 -10.25 4.5
      vertex 19.3835 -2.33345 4.5
    endloop
  endfacet
  facet normal -0 0 1
    outer loop
      vertex 18.7 -2.85788 4.5
      vertex 20.65 -10.25 4.5
      vertex 19.0589 -2.61807 4.5
    endloop
  endfacet
  facet normal -0 0 1
    outer loop
      vertex 18.3129 -3.0488 4.5
      vertex 20.65 -10.25 4.5
      vertex 18.7 -2.85788 4.5
    endloop
  endfacet
  facet normal -0 0 1
    outer loop
      vertex 17.9041 -3.18755 4.5
      vertex 20.65 -10.25 4.5
      vertex 18.3129 -3.0488 4.5
    endloop
  endfacet
  facet normal -0 0 1
    outer loop
      vertex 17.4807 -3.27177 4.5
      vertex 20.65 -10.25 4.5
      vertex 17.9041 -3.18755 4.5
    endloop
  endfacet
  facet normal -0 0 1
    outer loop
      vertex 17.05 -3.3 4.5
      vertex 20.65 -10.25 4.5
      vertex 17.4807 -3.27177 4.5
    endloop
  endfacet
  facet normal 0 0 1
    outer loop
      vertex 16.6193 -3.27177 4.5
      vertex 20.65 -10.25 4.5
      vertex 17.05 -3.3 4.5
    endloop
  endfacet
  facet normal 0 0 1
    outer loop
      vertex 16.1959 -3.18755 4.5
      vertex 20.65 -10.25 4.5
      vertex 16.6193 -3.27177 4.5
    endloop
  endfacet
  facet normal 0 0 1
    outer loop
      vertex 15.7871 -3.0488 4.5
      vertex 20.65 -10.25 4.5
      vertex 16.1959 -3.18755 4.5
    endloop
  endfacet
  facet normal 0 0 1
    outer loop
      vertex 15.4 -2.85788 4.5
      vertex 20.65 -10.25 4.5
      vertex 15.7871 -3.0488 4.5
    endloop
  endfacet
  facet normal 0 0 1
    outer loop
      vertex 15.0411 -2.61807 4.5
      vertex 20.65 -10.25 4.5
      vertex 15.4 -2.85788 4.5
    endloop
  endfacet
  facet normal 0 0 1
    outer loop
      vertex 14.7165 -2.33345 4.5
      vertex 20.65 -10.25 4.5
      vertex 15.0411 -2.61807 4.5
    endloop
  endfacet
  facet normal 0 0 1
    outer loop
      vertex -20.65 -10.25 4.5
      vertex 14.7165 -2.33345 4.5
      vertex 14.4319 -2.00891 4.5
    endloop
  endfacet
  facet normal 0 0 1
    outer loop
      vertex -20.65 -10.25 4.5
      vertex 13.75 0 4.5
      vertex -20.65 10.25 4.5
    endloop
  endfacet
  facet normal 0 0 1
    outer loop
      vertex 13.75 0 4.5
      vertex -20.65 -10.25 4.5
      vertex 13.7782 -0.430736 4.5
    endloop
  endfacet
  facet normal 0 0 1
    outer loop
      vertex 13.7782 -0.430736 4.5
      vertex -20.65 -10.25 4.5
      vertex 13.8624 -0.854102 4.5
    endloop
  endfacet
  facet normal 0 0 1
    outer loop
      vertex 13.8624 -0.854102 4.5
      vertex -20.65 -10.25 4.5
      vertex 14.0012 -1.26285 4.5
    endloop
  endfacet
  facet normal 0 0 1
    outer loop
      vertex 14.0012 -1.26285 4.5
      vertex -20.65 -10.25 4.5
      vertex 14.1921 -1.65 4.5
    endloop
  endfacet
  facet normal 0 0 1
    outer loop
      vertex 14.1921 -1.65 4.5
      vertex -20.65 -10.25 4.5
      vertex 14.4319 -2.00891 4.5
    endloop
  endfacet
  facet normal 0 0 1
    outer loop
      vertex 14.7165 -2.33345 4.5
      vertex -20.65 -10.25 4.5
      vertex 20.65 -10.25 4.5
    endloop
  endfacet
  facet normal 0 0 -1
    outer loop
      vertex 20.65 5.16462 -4.5
      vertex 20.3409 5.7 -4.5
      vertex 20.65 15.25 -4.5
    endloop
  endfacet
  facet normal 0 0 -1
    outer loop
      vertex 30.75 -27.25 -4.5
      vertex 23.85 -15.25 -4.5
      vertex 30.75 27.25 -4.5
    endloop
  endfacet
  facet normal 0 0 -1
    outer loop
      vertex 30.75 -27.25 -4.5
      vertex 20.65 -15.25 -4.5
      vertex 23.85 -15.25 -4.5
    endloop
  endfacet
  facet normal 0 0 -1
    outer loop
      vertex 20.65 -15.25 -4.5
      vertex 20.3409 -5.7 -4.5
      vertex 20.65 -5.16462 -4.5
    endloop
  endfacet
  facet normal 0 0 -1
    outer loop
      vertex 20.65 -15.25 -4.5
      vertex 13.7591 -5.7 -4.5
      vertex 20.3409 -5.7 -4.5
    endloop
  endfacet
  facet normal -0 0 -1
    outer loop
      vertex 13.7591 -5.7 -4.5
      vertex -20.65 -15.25 -4.5
      vertex 10.4682 0 -4.5
    endloop
  endfacet
  facet normal 0 0 -1
    outer loop
      vertex 20.65 -15.25 -4.5
      vertex -20.65 -15.25 -4.5
      vertex 13.7591 -5.7 -4.5
    endloop
  endfacet
  facet normal 0 0 -1
    outer loop
      vertex 30.75 -27.25 -4.5
      vertex -20.65 -15.25 -4.5
      vertex 20.65 -15.25 -4.5
    endloop
  endfacet
  facet normal 0 0 -1
    outer loop
      vertex -30.75 -27.25 -4.5
      vertex -20.65 -15.25 -4.5
      vertex 30.75 -27.25 -4.5
    endloop
  endfacet
  facet normal -0 0 -1
    outer loop
      vertex -23.85 -15.25 -4.5
      vertex -30.75 -27.25 -4.5
      vertex -23.85 15.25 -4.5
    endloop
  endfacet
  facet normal -0 0 -1
    outer loop
      vertex -20.65 -15.25 -4.5
      vertex -30.75 -27.25 -4.5
      vertex -23.85 -15.25 -4.5
    endloop
  endfacet
  facet normal 0 0 -1
    outer loop
      vertex 23.85 15.25 -4.5
      vertex 30.75 27.25 -4.5
      vertex 23.85 -15.25 -4.5
    endloop
  endfacet
  facet normal 0 0 -1
    outer loop
      vertex 20.65 15.25 -4.5
      vertex 30.75 27.25 -4.5
      vertex 23.85 15.25 -4.5
    endloop
  endfacet
  facet normal 0 0 -1
    outer loop
      vertex 13.7591 5.7 -4.5
      vertex 20.65 15.25 -4.5
      vertex 20.3409 5.7 -4.5
    endloop
  endfacet
  facet normal 0 0 -1
    outer loop
      vertex -20.65 15.25 -4.5
      vertex 10.4682 0 -4.5
      vertex -20.65 -15.25 -4.5
    endloop
  endfacet
  facet normal 0 0 -1
    outer loop
      vertex 10.4682 0 -4.5
      vertex -20.65 15.25 -4.5
      vertex 13.7591 5.7 -4.5
    endloop
  endfacet
  facet normal 0 0 -1
    outer loop
      vertex 13.7591 5.7 -4.5
      vertex -20.65 15.25 -4.5
      vertex 20.65 15.25 -4.5
    endloop
  endfacet
  facet normal 0 0 -1
    outer loop
      vertex 20.65 15.25 -4.5
      vertex -20.65 15.25 -4.5
      vertex 30.75 27.25 -4.5
    endloop
  endfacet
  facet normal 0 0 -1
    outer loop
      vertex -30.75 27.25 -4.5
      vertex -20.65 15.25 -4.5
      vertex -23.85 15.25 -4.5
    endloop
  endfacet
  facet normal 0 0 -1
    outer loop
      vertex -20.65 15.25 -4.5
      vertex -30.75 27.25 -4.5
      vertex 30.75 27.25 -4.5
    endloop
  endfacet
  facet normal 0 0 -1
    outer loop
      vertex -30.75 27.25 -4.5
      vertex -23.85 15.25 -4.5
      vertex -30.75 -27.25 -4.5
    endloop
  endfacet
  facet normal -1 0 0
    outer loop
      vertex -30.75 -27.25 -4.5
      vertex -30.75 27.25 4.5
      vertex -30.75 27.25 -4.5
    endloop
  endfacet
  facet normal -1 -0 0
    outer loop
      vertex -30.75 27.25 4.5
      vertex -30.75 -27.25 -4.5
      vertex -30.75 -27.25 4.5
    endloop
  endfacet
  facet normal 0 1 -0
    outer loop
      vertex 30.75 27.25 -4.5
      vertex -30.75 27.25 4.5
      vertex 30.75 27.25 4.5
    endloop
  endfacet
  facet normal 0 1 0
    outer loop
      vertex -30.75 27.25 4.5
      vertex 30.75 27.25 -4.5
      vertex -30.75 27.25 -4.5
    endloop
  endfacet
  facet normal 0 -1 0
    outer loop
      vertex -30.75 -27.25 -4.5
      vertex 30.75 -27.25 4.5
      vertex -30.75 -27.25 4.5
    endloop
  endfacet
  facet normal 0 -1 -0
    outer loop
      vertex 30.75 -27.25 4.5
      vertex -30.75 -27.25 -4.5
      vertex 30.75 -27.25 -4.5
    endloop
  endfacet
  facet normal 0 1 -0
    outer loop
      vertex 20.3409 -5.7 -4.5
      vertex 13.7591 -5.7 1.99
      vertex 20.3409 -5.7 1.99
    endloop
  endfacet
  facet normal 0 1 0
    outer loop
      vertex 13.7591 -5.7 1.99
      vertex 20.3409 -5.7 -4.5
      vertex 13.7591 -5.7 -4.5
    endloop
  endfacet
  facet normal -0.866027 0.499998 0
    outer loop
      vertex 20.3409 -5.7 -4.5
      vertex 20.65 -5.16462 1.99
      vertex 20.65 -5.16462 -4.5
    endloop
  endfacet
  facet normal -0.866027 0.499998 0
    outer loop
      vertex 20.65 -5.16462 1.99
      vertex 20.3409 -5.7 -4.5
      vertex 20.3409 -5.7 1.99
    endloop
  endfacet
  facet normal 0 -1 0
    outer loop
      vertex 13.7591 5.7 -4.5
      vertex 20.3409 5.7 1.99
      vertex 13.7591 5.7 1.99
    endloop
  endfacet
  facet normal 0 -1 -0
    outer loop
      vertex 20.3409 5.7 1.99
      vertex 13.7591 5.7 -4.5
      vertex 20.3409 5.7 -4.5
    endloop
  endfacet
  facet normal -0.866027 -0.499998 0
    outer loop
      vertex 20.65 5.16462 -4.5
      vertex 20.3409 5.7 1.99
      vertex 20.3409 5.7 -4.5
    endloop
  endfacet
  facet normal -0.866027 -0.499998 0
    outer loop
      vertex 20.3409 5.7 1.99
      vertex 20.65 5.16462 -4.5
      vertex 20.65 5.16462 1.99
    endloop
  endfacet
  facet normal 0.866025 -0.5 0
    outer loop
      vertex 10.4682 0 1.99
      vertex 13.7591 5.7 -4.5
      vertex 13.7591 5.7 1.99
    endloop
  endfacet
  facet normal 0.866025 -0.5 0
    outer loop
      vertex 13.7591 5.7 -4.5
      vertex 10.4682 0 1.99
      vertex 10.4682 0 -4.5
    endloop
  endfacet
  facet normal 0.866025 0.5 0
    outer loop
      vertex 13.7591 -5.7 1.99
      vertex 10.4682 0 -4.5
      vertex 10.4682 0 1.99
    endloop
  endfacet
  facet normal 0.866025 0.5 0
    outer loop
      vertex 10.4682 0 -4.5
      vertex 13.7591 -5.7 1.99
      vertex 13.7591 -5.7 -4.5
    endloop
  endfacet
  facet normal 0 0 -1
    outer loop
      vertex 20.65 -5.16462 1.99
      vertex 20.35 0 1.99
      vertex 20.65 5.16462 1.99
    endloop
  endfacet
  facet normal 0 0 -1
    outer loop
      vertex 18.3129 -3.0488 1.99
      vertex 20.65 -5.16462 1.99
      vertex 20.3409 -5.7 1.99
    endloop
  endfacet
  facet normal 0 0 -1
    outer loop
      vertex 20.65 -5.16462 1.99
      vertex 20.3218 -0.430736 1.99
      vertex 20.35 0 1.99
    endloop
  endfacet
  facet normal 0 0 -1
    outer loop
      vertex 20.65 -5.16462 1.99
      vertex 20.2376 -0.854102 1.99
      vertex 20.3218 -0.430736 1.99
    endloop
  endfacet
  facet normal 0 0 -1
    outer loop
      vertex 20.65 -5.16462 1.99
      vertex 20.0988 -1.26285 1.99
      vertex 20.2376 -0.854102 1.99
    endloop
  endfacet
  facet normal 0 0 -1
    outer loop
      vertex 20.65 -5.16462 1.99
      vertex 19.9079 -1.65 1.99
      vertex 20.0988 -1.26285 1.99
    endloop
  endfacet
  facet normal 0 0 -1
    outer loop
      vertex 20.65 -5.16462 1.99
      vertex 19.6681 -2.00891 1.99
      vertex 19.9079 -1.65 1.99
    endloop
  endfacet
  facet normal 0 0 -1
    outer loop
      vertex 20.65 -5.16462 1.99
      vertex 19.3835 -2.33345 1.99
      vertex 19.6681 -2.00891 1.99
    endloop
  endfacet
  facet normal 0 0 -1
    outer loop
      vertex 20.65 -5.16462 1.99
      vertex 19.0589 -2.61807 1.99
      vertex 19.3835 -2.33345 1.99
    endloop
  endfacet
  facet normal 0 0 -1
    outer loop
      vertex 20.65 -5.16462 1.99
      vertex 18.7 -2.85788 1.99
      vertex 19.0589 -2.61807 1.99
    endloop
  endfacet
  facet normal 0 0 -1
    outer loop
      vertex 20.65 -5.16462 1.99
      vertex 18.3129 -3.0488 1.99
      vertex 18.7 -2.85788 1.99
    endloop
  endfacet
  facet normal 0 0 -1
    outer loop
      vertex 20.3409 -5.7 1.99
      vertex 17.9041 -3.18755 1.99
      vertex 18.3129 -3.0488 1.99
    endloop
  endfacet
  facet normal 0 0 -1
    outer loop
      vertex 20.3409 -5.7 1.99
      vertex 17.4807 -3.27177 1.99
      vertex 17.9041 -3.18755 1.99
    endloop
  endfacet
  facet normal 0 0 -1
    outer loop
      vertex 20.3409 -5.7 1.99
      vertex 17.05 -3.3 1.99
      vertex 17.4807 -3.27177 1.99
    endloop
  endfacet
  facet normal 0 0 -1
    outer loop
      vertex 13.7591 -5.7 1.99
      vertex 17.05 -3.3 1.99
      vertex 20.3409 -5.7 1.99
    endloop
  endfacet
  facet normal -0 0 -1
    outer loop
      vertex 17.05 -3.3 1.99
      vertex 13.7591 -5.7 1.99
      vertex 16.6193 -3.27177 1.99
    endloop
  endfacet
  facet normal -0 0 -1
    outer loop
      vertex 16.6193 -3.27177 1.99
      vertex 13.7591 -5.7 1.99
      vertex 16.1959 -3.18755 1.99
    endloop
  endfacet
  facet normal -0 0 -1
    outer loop
      vertex 16.1959 -3.18755 1.99
      vertex 13.7591 -5.7 1.99
      vertex 15.7871 -3.0488 1.99
    endloop
  endfacet
  facet normal -0 0 -1
    outer loop
      vertex 15.7871 -3.0488 1.99
      vertex 13.7591 -5.7 1.99
      vertex 15.4 -2.85788 1.99
    endloop
  endfacet
  facet normal 0 0 -1
    outer loop
      vertex 13.7591 -5.7 1.99
      vertex 15.0411 -2.61807 1.99
      vertex 15.4 -2.85788 1.99
    endloop
  endfacet
  facet normal 0 0 -1
    outer loop
      vertex 13.7591 -5.7 1.99
      vertex 14.7165 -2.33345 1.99
      vertex 15.0411 -2.61807 1.99
    endloop
  endfacet
  facet normal 0 0 -1
    outer loop
      vertex 13.7591 -5.7 1.99
      vertex 14.4319 -2.00891 1.99
      vertex 14.7165 -2.33345 1.99
    endloop
  endfacet
  facet normal 0 0 -1
    outer loop
      vertex 13.7591 -5.7 1.99
      vertex 14.1921 -1.65 1.99
      vertex 14.4319 -2.00891 1.99
    endloop
  endfacet
  facet normal 0 0 -1
    outer loop
      vertex 10.4682 0 1.99
      vertex 14.1921 -1.65 1.99
      vertex 13.7591 -5.7 1.99
    endloop
  endfacet
  facet normal 0 0 -1
    outer loop
      vertex 14.1921 -1.65 1.99
      vertex 10.4682 0 1.99
      vertex 14.0012 -1.26285 1.99
    endloop
  endfacet
  facet normal 0 0 -1
    outer loop
      vertex 14.0012 -1.26285 1.99
      vertex 10.4682 0 1.99
      vertex 13.8624 -0.854102 1.99
    endloop
  endfacet
  facet normal 0 0 -1
    outer loop
      vertex 13.8624 -0.854102 1.99
      vertex 10.4682 0 1.99
      vertex 13.7782 -0.430736 1.99
    endloop
  endfacet
  facet normal 0 0 -1
    outer loop
      vertex 13.7782 -0.430736 1.99
      vertex 10.4682 0 1.99
      vertex 13.75 0 1.99
    endloop
  endfacet
  facet normal 0 0 -1
    outer loop
      vertex 20.3218 0.430736 1.99
      vertex 20.65 5.16462 1.99
      vertex 20.35 0 1.99
    endloop
  endfacet
  facet normal 0 0 -1
    outer loop
      vertex 20.2376 0.854102 1.99
      vertex 20.65 5.16462 1.99
      vertex 20.3218 0.430736 1.99
    endloop
  endfacet
  facet normal 0 0 -1
    outer loop
      vertex 20.0988 1.26285 1.99
      vertex 20.65 5.16462 1.99
      vertex 20.2376 0.854102 1.99
    endloop
  endfacet
  facet normal 0 0 -1
    outer loop
      vertex 19.9079 1.65 1.99
      vertex 20.65 5.16462 1.99
      vertex 20.0988 1.26285 1.99
    endloop
  endfacet
  facet normal 0 0 -1
    outer loop
      vertex 19.6681 2.00891 1.99
      vertex 20.65 5.16462 1.99
      vertex 19.9079 1.65 1.99
    endloop
  endfacet
  facet normal 0 0 -1
    outer loop
      vertex 19.3835 2.33345 1.99
      vertex 20.65 5.16462 1.99
      vertex 19.6681 2.00891 1.99
    endloop
  endfacet
  facet normal 0 0 -1
    outer loop
      vertex 19.0589 2.61807 1.99
      vertex 20.65 5.16462 1.99
      vertex 19.3835 2.33345 1.99
    endloop
  endfacet
  facet normal 0 0 -1
    outer loop
      vertex 18.7 2.85788 1.99
      vertex 20.65 5.16462 1.99
      vertex 19.0589 2.61807 1.99
    endloop
  endfacet
  facet normal 0 0 -1
    outer loop
      vertex 18.3129 3.0488 1.99
      vertex 20.65 5.16462 1.99
      vertex 18.7 2.85788 1.99
    endloop
  endfacet
  facet normal -0 0 -1
    outer loop
      vertex 20.65 5.16462 1.99
      vertex 18.3129 3.0488 1.99
      vertex 20.3409 5.7 1.99
    endloop
  endfacet
  facet normal 0 0 -1
    outer loop
      vertex 17.9041 3.18755 1.99
      vertex 20.3409 5.7 1.99
      vertex 18.3129 3.0488 1.99
    endloop
  endfacet
  facet normal 0 0 -1
    outer loop
      vertex 17.4807 3.27177 1.99
      vertex 20.3409 5.7 1.99
      vertex 17.9041 3.18755 1.99
    endloop
  endfacet
  facet normal 0 0 -1
    outer loop
      vertex 17.05 3.3 1.99
      vertex 20.3409 5.7 1.99
      vertex 17.4807 3.27177 1.99
    endloop
  endfacet
  facet normal 0 0 -1
    outer loop
      vertex 13.7591 5.7 1.99
      vertex 17.05 3.3 1.99
      vertex 16.6193 3.27177 1.99
    endloop
  endfacet
  facet normal 0 0 -1
    outer loop
      vertex 13.7591 5.7 1.99
      vertex 16.6193 3.27177 1.99
      vertex 16.1959 3.18755 1.99
    endloop
  endfacet
  facet normal 0 0 -1
    outer loop
      vertex 13.7591 5.7 1.99
      vertex 16.1959 3.18755 1.99
      vertex 15.7871 3.0488 1.99
    endloop
  endfacet
  facet normal 0 0 -1
    outer loop
      vertex 13.7591 5.7 1.99
      vertex 15.7871 3.0488 1.99
      vertex 15.4 2.85788 1.99
    endloop
  endfacet
  facet normal 0 0 -1
    outer loop
      vertex 17.05 3.3 1.99
      vertex 13.7591 5.7 1.99
      vertex 20.3409 5.7 1.99
    endloop
  endfacet
  facet normal 0 0 -1
    outer loop
      vertex 15.0411 2.61807 1.99
      vertex 13.7591 5.7 1.99
      vertex 15.4 2.85788 1.99
    endloop
  endfacet
  facet normal 0 0 -1
    outer loop
      vertex 14.7165 2.33345 1.99
      vertex 13.7591 5.7 1.99
      vertex 15.0411 2.61807 1.99
    endloop
  endfacet
  facet normal 0 0 -1
    outer loop
      vertex 14.4319 2.00891 1.99
      vertex 13.7591 5.7 1.99
      vertex 14.7165 2.33345 1.99
    endloop
  endfacet
  facet normal 0 0 -1
    outer loop
      vertex 14.1921 1.65 1.99
      vertex 13.7591 5.7 1.99
      vertex 14.4319 2.00891 1.99
    endloop
  endfacet
  facet normal 0 0 -1
    outer loop
      vertex 10.4682 0 1.99
      vertex 14.1921 1.65 1.99
      vertex 14.0012 1.26285 1.99
    endloop
  endfacet
  facet normal 0 0 -1
    outer loop
      vertex 10.4682 0 1.99
      vertex 14.0012 1.26285 1.99
      vertex 13.8624 0.854102 1.99
    endloop
  endfacet
  facet normal 0 0 -1
    outer loop
      vertex 10.4682 0 1.99
      vertex 13.8624 0.854102 1.99
      vertex 13.7782 0.430736 1.99
    endloop
  endfacet
  facet normal 0 0 -1
    outer loop
      vertex 10.4682 0 1.99
      vertex 13.7782 0.430736 1.99
      vertex 13.75 0 1.99
    endloop
  endfacet
  facet normal -0 0 -1
    outer loop
      vertex 14.1921 1.65 1.99
      vertex 10.4682 0 1.99
      vertex 13.7591 5.7 1.99
    endloop
  endfacet
  facet normal -0.980791 -0.195062 0
    outer loop
      vertex 20.3218 0.430736 1.99
      vertex 20.2376 0.854102 4.5
      vertex 20.2376 0.854102 1.99
    endloop
  endfacet
  facet normal -0.980791 -0.195062 0
    outer loop
      vertex 20.2376 0.854102 4.5
      vertex 20.3218 0.430736 1.99
      vertex 20.3218 0.430736 4.5
    endloop
  endfacet
  facet normal -0.997864 -0.0653295 0
    outer loop
      vertex 20.35 0 1.99
      vertex 20.3218 0.430736 4.5
      vertex 20.3218 0.430736 1.99
    endloop
  endfacet
  facet normal -0.997864 -0.0653295 0
    outer loop
      vertex 20.3218 0.430736 4.5
      vertex 20.35 0 1.99
      vertex 20.35 0 4.5
    endloop
  endfacet
  facet normal -0.946896 -0.321541 0
    outer loop
      vertex 20.2376 0.854102 1.99
      vertex 20.0988 1.26285 4.5
      vertex 20.0988 1.26285 1.99
    endloop
  endfacet
  facet normal -0.946896 -0.321541 0
    outer loop
      vertex 20.0988 1.26285 4.5
      vertex 20.2376 0.854102 1.99
      vertex 20.2376 0.854102 4.5
    endloop
  endfacet
  facet normal -0.896892 0.442249 0
    outer loop
      vertex 19.9079 -1.65 1.99
      vertex 20.0988 -1.26285 4.5
      vertex 20.0988 -1.26285 1.99
    endloop
  endfacet
  facet normal -0.896892 0.442249 0
    outer loop
      vertex 20.0988 -1.26285 4.5
      vertex 19.9079 -1.65 1.99
      vertex 19.9079 -1.65 4.5
    endloop
  endfacet
  facet normal -0.0654041 -0.997859 0
    outer loop
      vertex 17.05 3.3 1.99
      vertex 17.4807 3.27177 4.5
      vertex 17.05 3.3 4.5
    endloop
  endfacet
  facet normal -0.0654041 -0.997859 -0
    outer loop
      vertex 17.4807 3.27177 4.5
      vertex 17.05 3.3 1.99
      vertex 17.4807 3.27177 1.99
    endloop
  endfacet
  facet normal 0.896892 -0.442249 0
    outer loop
      vertex 14.0012 1.26285 4.5
      vertex 14.1921 1.65 1.99
      vertex 14.1921 1.65 4.5
    endloop
  endfacet
  facet normal 0.896892 -0.442249 0
    outer loop
      vertex 14.1921 1.65 1.99
      vertex 14.0012 1.26285 4.5
      vertex 14.0012 1.26285 1.99
    endloop
  endfacet
  facet normal -0.3214 -0.946943 0
    outer loop
      vertex 17.9041 3.18755 1.99
      vertex 18.3129 3.0488 4.5
      vertex 17.9041 3.18755 4.5
    endloop
  endfacet
  facet normal -0.3214 -0.946943 -0
    outer loop
      vertex 18.3129 3.0488 4.5
      vertex 17.9041 3.18755 1.99
      vertex 18.3129 3.0488 1.99
    endloop
  endfacet
  facet normal -0.980791 0.195062 0
    outer loop
      vertex 20.2376 -0.854102 1.99
      vertex 20.3218 -0.430736 4.5
      vertex 20.3218 -0.430736 1.99
    endloop
  endfacet
  facet normal -0.980791 0.195062 0
    outer loop
      vertex 20.3218 -0.430736 4.5
      vertex 20.2376 -0.854102 1.99
      vertex 20.2376 -0.854102 4.5
    endloop
  endfacet
  facet normal -0.555571 -0.831469 0
    outer loop
      vertex 18.7 2.85788 1.99
      vertex 19.0589 2.61807 4.5
      vertex 18.7 2.85788 4.5
    endloop
  endfacet
  facet normal -0.555571 -0.831469 -0
    outer loop
      vertex 19.0589 2.61807 4.5
      vertex 18.7 2.85788 1.99
      vertex 19.0589 2.61807 1.99
    endloop
  endfacet
  facet normal 0.980791 0.195062 0
    outer loop
      vertex 13.8624 -0.854102 4.5
      vertex 13.7782 -0.430736 1.99
      vertex 13.7782 -0.430736 4.5
    endloop
  endfacet
  facet normal 0.980791 0.195062 0
    outer loop
      vertex 13.7782 -0.430736 1.99
      vertex 13.8624 -0.854102 4.5
      vertex 13.8624 -0.854102 1.99
    endloop
  endfacet
  facet normal 0.896892 0.442249 0
    outer loop
      vertex 14.1921 -1.65 4.5
      vertex 14.0012 -1.26285 1.99
      vertex 14.0012 -1.26285 4.5
    endloop
  endfacet
  facet normal 0.896892 0.442249 0
    outer loop
      vertex 14.0012 -1.26285 1.99
      vertex 14.1921 -1.65 4.5
      vertex 14.1921 -1.65 1.99
    endloop
  endfacet
  facet normal -0.896892 -0.442249 0
    outer loop
      vertex 20.0988 1.26285 1.99
      vertex 19.9079 1.65 4.5
      vertex 19.9079 1.65 1.99
    endloop
  endfacet
  facet normal -0.896892 -0.442249 0
    outer loop
      vertex 19.9079 1.65 4.5
      vertex 20.0988 1.26285 1.99
      vertex 20.0988 1.26285 4.5
    endloop
  endfacet
  facet normal 0.195091 -0.980785 0
    outer loop
      vertex 16.1959 3.18755 1.99
      vertex 16.6193 3.27177 4.5
      vertex 16.1959 3.18755 4.5
    endloop
  endfacet
  facet normal 0.195091 -0.980785 0
    outer loop
      vertex 16.6193 3.27177 4.5
      vertex 16.1959 3.18755 1.99
      vertex 16.6193 3.27177 1.99
    endloop
  endfacet
  facet normal 0.3214 0.946943 -0
    outer loop
      vertex 16.1959 -3.18755 1.99
      vertex 15.7871 -3.0488 4.5
      vertex 16.1959 -3.18755 4.5
    endloop
  endfacet
  facet normal 0.3214 0.946943 0
    outer loop
      vertex 15.7871 -3.0488 4.5
      vertex 16.1959 -3.18755 1.99
      vertex 15.7871 -3.0488 1.99
    endloop
  endfacet
  facet normal -0.946896 0.321541 0
    outer loop
      vertex 20.0988 -1.26285 1.99
      vertex 20.2376 -0.854102 4.5
      vertex 20.2376 -0.854102 1.99
    endloop
  endfacet
  facet normal -0.946896 0.321541 0
    outer loop
      vertex 20.2376 -0.854102 4.5
      vertex 20.0988 -1.26285 1.99
      vertex 20.0988 -1.26285 4.5
    endloop
  endfacet
  facet normal -0.0654041 0.997859 0
    outer loop
      vertex 17.4807 -3.27177 1.99
      vertex 17.05 -3.3 4.5
      vertex 17.4807 -3.27177 4.5
    endloop
  endfacet
  facet normal -0.0654041 0.997859 0
    outer loop
      vertex 17.05 -3.3 4.5
      vertex 17.4807 -3.27177 1.99
      vertex 17.05 -3.3 1.99
    endloop
  endfacet
  facet normal -0.555571 0.831469 0
    outer loop
      vertex 19.0589 -2.61807 1.99
      vertex 18.7 -2.85788 4.5
      vertex 19.0589 -2.61807 4.5
    endloop
  endfacet
  facet normal -0.555571 0.831469 0
    outer loop
      vertex 18.7 -2.85788 4.5
      vertex 19.0589 -2.61807 1.99
      vertex 18.7 -2.85788 1.99
    endloop
  endfacet
  facet normal 0.3214 -0.946943 0
    outer loop
      vertex 15.7871 3.0488 1.99
      vertex 16.1959 3.18755 4.5
      vertex 15.7871 3.0488 4.5
    endloop
  endfacet
  facet normal 0.3214 -0.946943 0
    outer loop
      vertex 16.1959 3.18755 4.5
      vertex 15.7871 3.0488 1.99
      vertex 16.1959 3.18755 1.99
    endloop
  endfacet
  facet normal -0.195091 0.980785 0
    outer loop
      vertex 17.9041 -3.18755 1.99
      vertex 17.4807 -3.27177 4.5
      vertex 17.9041 -3.18755 4.5
    endloop
  endfacet
  facet normal -0.195091 0.980785 0
    outer loop
      vertex 17.4807 -3.27177 4.5
      vertex 17.9041 -3.18755 1.99
      vertex 17.4807 -3.27177 1.99
    endloop
  endfacet
  facet normal 0.831487 0.555545 0
    outer loop
      vertex 14.4319 -2.00891 4.5
      vertex 14.1921 -1.65 1.99
      vertex 14.1921 -1.65 4.5
    endloop
  endfacet
  facet normal 0.831487 0.555545 0
    outer loop
      vertex 14.1921 -1.65 1.99
      vertex 14.4319 -2.00891 4.5
      vertex 14.4319 -2.00891 1.99
    endloop
  endfacet
  facet normal 0.0654041 -0.997859 0
    outer loop
      vertex 16.6193 3.27177 1.99
      vertex 17.05 3.3 4.5
      vertex 16.6193 3.27177 4.5
    endloop
  endfacet
  facet normal 0.0654041 -0.997859 0
    outer loop
      vertex 17.05 3.3 4.5
      vertex 16.6193 3.27177 1.99
      vertex 17.05 3.3 1.99
    endloop
  endfacet
  facet normal -0.659285 -0.751893 0
    outer loop
      vertex 19.0589 2.61807 1.99
      vertex 19.3835 2.33345 4.5
      vertex 19.0589 2.61807 4.5
    endloop
  endfacet
  facet normal -0.659285 -0.751893 -0
    outer loop
      vertex 19.3835 2.33345 4.5
      vertex 19.0589 2.61807 1.99
      vertex 19.3835 2.33345 1.99
    endloop
  endfacet
  facet normal 0.946896 -0.321541 0
    outer loop
      vertex 13.8624 0.854102 4.5
      vertex 14.0012 1.26285 1.99
      vertex 14.0012 1.26285 4.5
    endloop
  endfacet
  facet normal 0.946896 -0.321541 0
    outer loop
      vertex 14.0012 1.26285 1.99
      vertex 13.8624 0.854102 4.5
      vertex 13.8624 0.854102 1.99
    endloop
  endfacet
  facet normal 0.442332 -0.896851 0
    outer loop
      vertex 15.4 2.85788 1.99
      vertex 15.7871 3.0488 4.5
      vertex 15.4 2.85788 4.5
    endloop
  endfacet
  facet normal 0.442332 -0.896851 0
    outer loop
      vertex 15.7871 3.0488 4.5
      vertex 15.4 2.85788 1.99
      vertex 15.7871 3.0488 1.99
    endloop
  endfacet
  facet normal -0.831487 0.555545 0
    outer loop
      vertex 19.6681 -2.00891 1.99
      vertex 19.9079 -1.65 4.5
      vertex 19.9079 -1.65 1.99
    endloop
  endfacet
  facet normal -0.831487 0.555545 0
    outer loop
      vertex 19.9079 -1.65 4.5
      vertex 19.6681 -2.00891 1.99
      vertex 19.6681 -2.00891 4.5
    endloop
  endfacet
  facet normal -0.751856 -0.659328 0
    outer loop
      vertex 19.6681 2.00891 1.99
      vertex 19.3835 2.33345 4.5
      vertex 19.3835 2.33345 1.99
    endloop
  endfacet
  facet normal -0.751856 -0.659328 0
    outer loop
      vertex 19.3835 2.33345 4.5
      vertex 19.6681 2.00891 1.99
      vertex 19.6681 2.00891 4.5
    endloop
  endfacet
  facet normal -0.997864 0.0653295 0
    outer loop
      vertex 20.3218 -0.430736 1.99
      vertex 20.35 0 4.5
      vertex 20.35 0 1.99
    endloop
  endfacet
  facet normal -0.997864 0.0653295 0
    outer loop
      vertex 20.35 0 4.5
      vertex 20.3218 -0.430736 1.99
      vertex 20.3218 -0.430736 4.5
    endloop
  endfacet
  facet normal -0.831487 -0.555545 0
    outer loop
      vertex 19.9079 1.65 1.99
      vertex 19.6681 2.00891 4.5
      vertex 19.6681 2.00891 1.99
    endloop
  endfacet
  facet normal -0.831487 -0.555545 0
    outer loop
      vertex 19.6681 2.00891 4.5
      vertex 19.9079 1.65 1.99
      vertex 19.9079 1.65 4.5
    endloop
  endfacet
  facet normal -0.442332 0.896851 0
    outer loop
      vertex 18.7 -2.85788 1.99
      vertex 18.3129 -3.0488 4.5
      vertex 18.7 -2.85788 4.5
    endloop
  endfacet
  facet normal -0.442332 0.896851 0
    outer loop
      vertex 18.3129 -3.0488 4.5
      vertex 18.7 -2.85788 1.99
      vertex 18.3129 -3.0488 1.99
    endloop
  endfacet
  facet normal -0.3214 0.946943 0
    outer loop
      vertex 18.3129 -3.0488 1.99
      vertex 17.9041 -3.18755 4.5
      vertex 18.3129 -3.0488 4.5
    endloop
  endfacet
  facet normal -0.3214 0.946943 0
    outer loop
      vertex 17.9041 -3.18755 4.5
      vertex 18.3129 -3.0488 1.99
      vertex 17.9041 -3.18755 1.99
    endloop
  endfacet
  facet normal -0.442332 -0.896851 0
    outer loop
      vertex 18.3129 3.0488 1.99
      vertex 18.7 2.85788 4.5
      vertex 18.3129 3.0488 4.5
    endloop
  endfacet
  facet normal -0.442332 -0.896851 -0
    outer loop
      vertex 18.7 2.85788 4.5
      vertex 18.3129 3.0488 1.99
      vertex 18.7 2.85788 1.99
    endloop
  endfacet
  facet normal 0.997864 0.0653295 0
    outer loop
      vertex 13.7782 -0.430736 4.5
      vertex 13.75 0 1.99
      vertex 13.75 0 4.5
    endloop
  endfacet
  facet normal 0.997864 0.0653295 0
    outer loop
      vertex 13.75 0 1.99
      vertex 13.7782 -0.430736 4.5
      vertex 13.7782 -0.430736 1.99
    endloop
  endfacet
  facet normal 0.980791 -0.195062 0
    outer loop
      vertex 13.7782 0.430736 4.5
      vertex 13.8624 0.854102 1.99
      vertex 13.8624 0.854102 4.5
    endloop
  endfacet
  facet normal 0.980791 -0.195062 0
    outer loop
      vertex 13.8624 0.854102 1.99
      vertex 13.7782 0.430736 4.5
      vertex 13.7782 0.430736 1.99
    endloop
  endfacet
  facet normal 0.946896 0.321541 0
    outer loop
      vertex 14.0012 -1.26285 4.5
      vertex 13.8624 -0.854102 1.99
      vertex 13.8624 -0.854102 4.5
    endloop
  endfacet
  facet normal 0.946896 0.321541 0
    outer loop
      vertex 13.8624 -0.854102 1.99
      vertex 14.0012 -1.26285 4.5
      vertex 14.0012 -1.26285 1.99
    endloop
  endfacet
  facet normal -0.195091 -0.980785 0
    outer loop
      vertex 17.4807 3.27177 1.99
      vertex 17.9041 3.18755 4.5
      vertex 17.4807 3.27177 4.5
    endloop
  endfacet
  facet normal -0.195091 -0.980785 -0
    outer loop
      vertex 17.9041 3.18755 4.5
      vertex 17.4807 3.27177 1.99
      vertex 17.9041 3.18755 1.99
    endloop
  endfacet
  facet normal 0.997864 -0.0653295 0
    outer loop
      vertex 13.75 0 4.5
      vertex 13.7782 0.430736 1.99
      vertex 13.7782 0.430736 4.5
    endloop
  endfacet
  facet normal 0.997864 -0.0653295 0
    outer loop
      vertex 13.7782 0.430736 1.99
      vertex 13.75 0 4.5
      vertex 13.75 0 1.99
    endloop
  endfacet
  facet normal 0.659285 -0.751893 0
    outer loop
      vertex 14.7165 2.33345 1.99
      vertex 15.0411 2.61807 4.5
      vertex 14.7165 2.33345 4.5
    endloop
  endfacet
  facet normal 0.659285 -0.751893 0
    outer loop
      vertex 15.0411 2.61807 4.5
      vertex 14.7165 2.33345 1.99
      vertex 15.0411 2.61807 1.99
    endloop
  endfacet
  facet normal 0.555571 -0.831469 0
    outer loop
      vertex 15.0411 2.61807 1.99
      vertex 15.4 2.85788 4.5
      vertex 15.0411 2.61807 4.5
    endloop
  endfacet
  facet normal 0.555571 -0.831469 0
    outer loop
      vertex 15.4 2.85788 4.5
      vertex 15.0411 2.61807 1.99
      vertex 15.4 2.85788 1.99
    endloop
  endfacet
  facet normal 0.195091 0.980785 -0
    outer loop
      vertex 16.6193 -3.27177 1.99
      vertex 16.1959 -3.18755 4.5
      vertex 16.6193 -3.27177 4.5
    endloop
  endfacet
  facet normal 0.195091 0.980785 0
    outer loop
      vertex 16.1959 -3.18755 4.5
      vertex 16.6193 -3.27177 1.99
      vertex 16.1959 -3.18755 1.99
    endloop
  endfacet
  facet normal -0.659285 0.751893 0
    outer loop
      vertex 19.3835 -2.33345 1.99
      vertex 19.0589 -2.61807 4.5
      vertex 19.3835 -2.33345 4.5
    endloop
  endfacet
  facet normal -0.659285 0.751893 0
    outer loop
      vertex 19.0589 -2.61807 4.5
      vertex 19.3835 -2.33345 1.99
      vertex 19.0589 -2.61807 1.99
    endloop
  endfacet
  facet normal -0.751856 0.659328 0
    outer loop
      vertex 19.3835 -2.33345 1.99
      vertex 19.6681 -2.00891 4.5
      vertex 19.6681 -2.00891 1.99
    endloop
  endfacet
  facet normal -0.751856 0.659328 0
    outer loop
      vertex 19.6681 -2.00891 4.5
      vertex 19.3835 -2.33345 1.99
      vertex 19.3835 -2.33345 4.5
    endloop
  endfacet
  facet normal 0.442332 0.896851 -0
    outer loop
      vertex 15.7871 -3.0488 1.99
      vertex 15.4 -2.85788 4.5
      vertex 15.7871 -3.0488 4.5
    endloop
  endfacet
  facet normal 0.442332 0.896851 0
    outer loop
      vertex 15.4 -2.85788 4.5
      vertex 15.7871 -3.0488 1.99
      vertex 15.4 -2.85788 1.99
    endloop
  endfacet
  facet normal 0.751856 0.659328 0
    outer loop
      vertex 14.7165 -2.33345 4.5
      vertex 14.4319 -2.00891 1.99
      vertex 14.4319 -2.00891 4.5
    endloop
  endfacet
  facet normal 0.751856 0.659328 0
    outer loop
      vertex 14.4319 -2.00891 1.99
      vertex 14.7165 -2.33345 4.5
      vertex 14.7165 -2.33345 1.99
    endloop
  endfacet
  facet normal 0.0654041 0.997859 -0
    outer loop
      vertex 17.05 -3.3 1.99
      vertex 16.6193 -3.27177 4.5
      vertex 17.05 -3.3 4.5
    endloop
  endfacet
  facet normal 0.0654041 0.997859 0
    outer loop
      vertex 16.6193 -3.27177 4.5
      vertex 17.05 -3.3 1.99
      vertex 16.6193 -3.27177 1.99
    endloop
  endfacet
  facet normal 0.831487 -0.555545 0
    outer loop
      vertex 14.1921 1.65 4.5
      vertex 14.4319 2.00891 1.99
      vertex 14.4319 2.00891 4.5
    endloop
  endfacet
  facet normal 0.831487 -0.555545 0
    outer loop
      vertex 14.4319 2.00891 1.99
      vertex 14.1921 1.65 4.5
      vertex 14.1921 1.65 1.99
    endloop
  endfacet
  facet normal 0.751856 -0.659328 0
    outer loop
      vertex 14.4319 2.00891 4.5
      vertex 14.7165 2.33345 1.99
      vertex 14.7165 2.33345 4.5
    endloop
  endfacet
  facet normal 0.751856 -0.659328 0
    outer loop
      vertex 14.7165 2.33345 1.99
      vertex 14.4319 2.00891 4.5
      vertex 14.4319 2.00891 1.99
    endloop
  endfacet
  facet normal 0.659285 0.751893 -0
    outer loop
      vertex 15.0411 -2.61807 1.99
      vertex 14.7165 -2.33345 4.5
      vertex 15.0411 -2.61807 4.5
    endloop
  endfacet
  facet normal 0.659285 0.751893 0
    outer loop
      vertex 14.7165 -2.33345 4.5
      vertex 15.0411 -2.61807 1.99
      vertex 14.7165 -2.33345 1.99
    endloop
  endfacet
  facet normal 0.555571 0.831469 -0
    outer loop
      vertex 15.4 -2.85788 1.99
      vertex 15.0411 -2.61807 4.5
      vertex 15.4 -2.85788 4.5
    endloop
  endfacet
  facet normal 0.555571 0.831469 0
    outer loop
      vertex 15.0411 -2.61807 4.5
      vertex 15.4 -2.85788 1.99
      vertex 15.0411 -2.61807 1.99
    endloop
  endfacet
  facet normal -1 0 0
    outer loop
      vertex -20.65 15.25 -4.5
      vertex -20.65 13.25 4.5
      vertex -20.65 15.25 4.5
    endloop
  endfacet
  facet normal -1 0 0
    outer loop
      vertex -20.65 13.25 4.5
      vertex -20.65 10.25 4.5
      vertex -20.65 13.25 5.75
    endloop
  endfacet
  facet normal -1 0 0
    outer loop
      vertex -20.65 15.25 -4.5
      vertex -20.65 10.25 4.5
      vertex -20.65 13.25 4.5
    endloop
  endfacet
  facet normal -1 0 0
    outer loop
      vertex -20.65 15.25 -4.5
      vertex -20.65 -10.25 4.5
      vertex -20.65 10.25 4.5
    endloop
  endfacet
  facet normal -1 0 0
    outer loop
      vertex -20.65 -10.25 4.5
      vertex -20.65 -13.25 4.5
      vertex -20.65 -10.25 5.75
    endloop
  endfacet
  facet normal -1 0 0
    outer loop
      vertex -20.65 -15.25 -4.5
      vertex -20.65 -10.25 4.5
      vertex -20.65 15.25 -4.5
    endloop
  endfacet
  facet normal -1 -0 0
    outer loop
      vertex -20.65 -10.25 4.5
      vertex -20.65 -15.25 -4.5
      vertex -20.65 -13.25 4.5
    endloop
  endfacet
  facet normal -1 -0 0
    outer loop
      vertex -20.65 -13.25 4.5
      vertex -20.65 -15.25 -4.5
      vertex -20.65 -15.25 4.5
    endloop
  endfacet
  facet normal -1 -0 0
    outer loop
      vertex -20.65 13.25 5.75
      vertex -20.65 10.25 4.5
      vertex -20.65 10.25 5.75
    endloop
  endfacet
  facet normal -1 -0 0
    outer loop
      vertex -20.65 -10.25 5.75
      vertex -20.65 -13.25 4.5
      vertex -20.65 -13.25 5.75
    endloop
  endfacet
  facet normal 1 -0 0
    outer loop
      vertex -23.85 -15.25 4.5
      vertex -23.85 15.25 -4.5
      vertex -23.85 15.25 4.5
    endloop
  endfacet
  facet normal 1 0 0
    outer loop
      vertex -23.85 15.25 -4.5
      vertex -23.85 -15.25 4.5
      vertex -23.85 -15.25 -4.5
    endloop
  endfacet
  facet normal 0 -1 0
    outer loop
      vertex -23.85 15.25 -4.5
      vertex -20.65 15.25 4.5
      vertex -23.85 15.25 4.5
    endloop
  endfacet
  facet normal 0 -1 -0
    outer loop
      vertex -20.65 15.25 4.5
      vertex -23.85 15.25 -4.5
      vertex -20.65 15.25 -4.5
    endloop
  endfacet
  facet normal 0 1 -0
    outer loop
      vertex -20.65 -15.25 -4.5
      vertex -23.85 -15.25 4.5
      vertex -20.65 -15.25 4.5
    endloop
  endfacet
  facet normal 0 1 0
    outer loop
      vertex -23.85 -15.25 4.5
      vertex -20.65 -15.25 -4.5
      vertex -23.85 -15.25 -4.5
    endloop
  endfacet
  facet normal -1 0 0
    outer loop
      vertex 23.85 -15.25 -4.5
      vertex 23.85 15.25 4.5
      vertex 23.85 15.25 -4.5
    endloop
  endfacet
  facet normal -1 -0 0
    outer loop
      vertex 23.85 15.25 4.5
      vertex 23.85 -15.25 -4.5
      vertex 23.85 -15.25 4.5
    endloop
  endfacet
  facet normal 1 0 0
    outer loop
      vertex 20.65 -10.25 5.75
      vertex 20.65 -13.25 5.75
      vertex 20.65 -10.25 4.5
    endloop
  endfacet
  facet normal 1 0 0
    outer loop
      vertex 20.65 13.25 5.75
      vertex 20.65 10.25 5.75
      vertex 20.65 13.25 4.5
    endloop
  endfacet
  facet normal 1 -0 0
    outer loop
      vertex 20.65 13.25 4.5
      vertex 20.65 15.25 -4.5
      vertex 20.65 15.25 4.5
    endloop
  endfacet
  facet normal 1 0 0
    outer loop
      vertex 20.65 10.25 4.5
      vertex 20.65 13.25 4.5
      vertex 20.65 10.25 5.75
    endloop
  endfacet
  facet normal 1 0 0
    outer loop
      vertex 20.65 13.25 4.5
      vertex 20.65 10.25 4.5
      vertex 20.65 15.25 -4.5
    endloop
  endfacet
  facet normal 1 0 0
    outer loop
      vertex 20.65 5.16462 -4.5
      vertex 20.65 10.25 4.5
      vertex 20.65 5.16462 1.99
    endloop
  endfacet
  facet normal 1 0 0
    outer loop
      vertex 20.65 10.25 4.5
      vertex 20.65 5.16462 -4.5
      vertex 20.65 15.25 -4.5
    endloop
  endfacet
  facet normal 1 0 0
    outer loop
      vertex 20.65 10.25 4.5
      vertex 20.65 -5.16462 1.99
      vertex 20.65 5.16462 1.99
    endloop
  endfacet
  facet normal 1 -0 0
    outer loop
      vertex 20.65 -10.25 4.5
      vertex 20.65 -5.16462 1.99
      vertex 20.65 10.25 4.5
    endloop
  endfacet
  facet normal 1 0 0
    outer loop
      vertex 20.65 -10.25 4.5
      vertex 20.65 -5.16462 -4.5
      vertex 20.65 -5.16462 1.99
    endloop
  endfacet
  facet normal 1 0 0
    outer loop
      vertex 20.65 -13.25 4.5
      vertex 20.65 -10.25 4.5
      vertex 20.65 -13.25 5.75
    endloop
  endfacet
  facet normal 1 0 0
    outer loop
      vertex 20.65 -15.25 -4.5
      vertex 20.65 -10.25 4.5
      vertex 20.65 -13.25 4.5
    endloop
  endfacet
  facet normal 1 0 0
    outer loop
      vertex 20.65 -15.25 -4.5
      vertex 20.65 -13.25 4.5
      vertex 20.65 -15.25 4.5
    endloop
  endfacet
  facet normal 1 0 0
    outer loop
      vertex 20.65 -10.25 4.5
      vertex 20.65 -15.25 -4.5
      vertex 20.65 -5.16462 -4.5
    endloop
  endfacet
  facet normal 0 -1 0
    outer loop
      vertex 20.65 15.25 -4.5
      vertex 23.85 15.25 4.5
      vertex 20.65 15.25 4.5
    endloop
  endfacet
  facet normal 0 -1 -0
    outer loop
      vertex 23.85 15.25 4.5
      vertex 20.65 15.25 -4.5
      vertex 23.85 15.25 -4.5
    endloop
  endfacet
  facet normal 0 1 -0
    outer loop
      vertex 23.85 -15.25 -4.5
      vertex 20.65 -15.25 4.5
      vertex 23.85 -15.25 4.5
    endloop
  endfacet
  facet normal 0 1 0
    outer loop
      vertex 20.65 -15.25 4.5
      vertex 23.85 -15.25 -4.5
      vertex 20.65 -15.25 -4.5
    endloop
  endfacet
endsolid OpenSCAD_Model
